<svg version="1.1" xmlns="http://www.w3.org/2000/svg" viewBox="0 0 992 523.0992063492063" width="992" height="523.0992063492063">
  <!-- svg-source:excalidraw -->
  
  <defs>
    <style class="style-fonts">
      @font-face {
        font-family: "Virgil";
        src: url("https://excalidraw.com/Virgil.woff2");
      }
      @font-face {
        font-family: "Cascadia";
        src: url("https://excalidraw.com/Cascadia.woff2");
      }
    </style>
  </defs>
  <rect x="0" y="0" width="992" height="523.0992063492063" fill="#ffffff"></rect><g stroke-linecap="round" transform="translate(759 65) rotate(0 51 21.5)"><path d="M9.79 -1.5 L96.57 -1.05 L99.94 5.12 L102.08 37.61 L98.46 38.42 L93.19 43.19 L6.93 42.03 L-0.31 36.84 L-1.76 11.52 L1.67 4.24 L10.57 -0.98" stroke="none" stroke-width="0" fill="#ced4da"></path><path d="M10.75 0 M10.75 0 C40.14 0.44, 67.7 0.84, 91.25 0 M10.75 0 C27.39 -0.35, 42.58 -0.13, 91.25 0 M91.25 0 C99.47 -1.21, 102.87 3.57, 102 10.75 M91.25 0 C100.04 1.43, 101.99 4.9, 102 10.75 M102 10.75 C101.76 16.17, 101.35 21.17, 102 32.25 M102 10.75 C101.41 17.93, 101.39 23.34, 102 32.25 M102 32.25 C100.9 40.75, 99.79 41.65, 91.25 43 M102 32.25 C101.08 40.5, 97.34 42.98, 91.25 43 M91.25 43 C60.91 40.83, 33.43 44.41, 10.75 43 M91.25 43 C72.29 43.21, 54.38 42.86, 10.75 43 M10.75 43 C4.04 43.48, 1.64 39.21, 0 32.25 M10.75 43 C4.84 41.75, 1.72 37.28, 0 32.25 M0 32.25 C0.08 28.94, 0.41 20.96, 0 10.75 M0 32.25 C-0.71 24.15, -0.76 17.39, 0 10.75 M0 10.75 C-0.53 1.64, 2.59 -0.28, 10.75 0 M0 10.75 C1.02 2.46, 1.79 0.25, 10.75 0" stroke="#000000" stroke-width="1" fill="none"></path></g><g stroke-linecap="round" transform="translate(10.62698412698387 64.09920634920633) rotate(0 358.5 224.5)"><path d="M0.75 0.77 C260.67 -1.6, 522.09 -2.58, 716.51 -0.42 M-0.19 0.38 C220.23 -2.21, 440.51 -2.29, 717.28 0.22 M716.93 -0.49 C716.96 160.62, 717.58 319.35, 717.3 448.77 M716.9 -0.27 C717.86 165.04, 717.45 330.02, 716.56 449.2 M716.52 449.3 C438.95 447.83, 161.64 447.93, -0.66 449.63 M717.27 448.75 C523.52 448.54, 330.15 448.92, -0.17 449.32 M0.82 448.53 C-2.35 357.2, -2.13 266, 0.96 0.35 M0.38 449.16 C1.16 294.97, 1.29 140.94, -0.39 0.45" stroke="#000000" stroke-width="1" fill="none"></path></g><g stroke-linecap="round" transform="translate(756.6269841269839 64.09920634920633) rotate(0 110 118.5)"><path d="M-0.76 1.18 C57.06 0.56, 111.43 -1.31, 218.6 1.34 M-0.51 -0.41 C72.45 1.26, 146.72 0.23, 219.55 -0.56 M220.12 -1.07 C221.66 79.5, 220.98 158.3, 220.57 237.4 M219.57 0.47 C217.29 85.03, 217.66 170.41, 220.63 236.79 M220.63 235.35 C138.16 233.8, 54.97 233.78, 1.22 236.66 M220.3 236.85 C167.29 237.38, 116.15 238.11, 0.02 237.47 M-0.21 237.17 C-2.27 162.9, -1.39 89.64, 0.49 -0.58 M-0.35 237.82 C-0.65 152.37, 0.56 68.18, -0.57 0.08" stroke="#000000" stroke-width="1" fill="none"></path></g><g stroke-linecap="round" transform="translate(757.6269841269839 317.0992063492063) rotate(0 110.5 97)"><path d="M0.47 0.59 C61.66 -3.11, 123.62 -1.56, 222.2 0.05 M0.66 -0.11 C78.34 -1.62, 156.09 -1.17, 220.61 0.26 M221.84 -0.83 C224.06 50.28, 221.74 104.7, 221.34 192.63 M220.78 0.23 C221.89 59.42, 221.81 120.57, 221.13 193.87 M220.45 195.48 C147.53 194.75, 70.82 194.27, 1.26 192.42 M221.06 193.38 C141.73 194.52, 61.45 195.3, 0.11 194.85 M1.77 195.54 C2.1 135.29, 3.75 77.5, -1.32 -1.55 M0.54 193.23 C0.82 131.89, 1.19 68.19, 0.3 0.08" stroke="#000000" stroke-width="1" fill="none"></path></g><g stroke-linecap="round" transform="translate(757 65) rotate(0 110 20.5)"><path d="M-1.39 1.25 C68.48 2.08, 132.47 0.52, 218.74 0.98 M0.04 0.75 C60.67 1.01, 120.38 2.22, 219.98 -0.84 M218.62 -0.22 C221.28 13.04, 219.97 20.51, 219.72 39.94 M219.03 0.82 C219.41 11.98, 220.55 23.03, 219.61 40.96 M219.95 41.91 C134.85 40.83, 52.74 41.78, 0.79 39.54 M219.25 41.28 C137.22 42.39, 56.53 42.27, 0.3 40.68 M0.05 40.66 C1.3 27.8, -0.01 12.43, 1.91 0.35 M-0.67 40.4 C-0.87 28.74, -0.83 16.03, -0.99 -0.74" stroke="#000000" stroke-width="1" fill="none"></path></g><g stroke-linecap="round" transform="translate(759 363.00000000000006) rotate(0 111 25)"><path d="M0 0 C0 0, 0 0, 0 0 M0 0 C0 0, 0 0, 0 0 M-0.55 6.19 C0.71 5.2, 3.57 3.58, 4.72 1.05 M-0.11 6.43 C0.73 4.66, 2.31 3.44, 4.91 0.55 M-0.65 13.43 C1.49 8.4, 4.91 5.29, 10.97 -1.03 M-0.56 12.3 C2.21 9.3, 4.55 7.38, 11.02 -0.21 M0.13 20.16 C1.96 12.89, 7.76 9.91, 17.48 0.71 M-1.02 19.31 C5.11 11.44, 10.22 7.07, 15.68 0.12 M1.04 24.96 C6.39 19.84, 11.22 12.22, 20.08 -0.65 M-0.33 23.16 C6.83 15.74, 14.64 9.11, 21.17 0.63 M0.99 28.81 C7.87 21.58, 13.07 13.07, 24.48 -0.41 M0.01 31.2 C6.74 22.21, 13.88 12.94, 26.96 -0.04 M-0.23 37.66 C6.94 28.9, 18.68 17.37, 30.77 -0.23 M0.51 36.96 C10.05 26.28, 19.38 14.33, 31.37 0.82 M0.06 42.91 C12.18 29.47, 24.85 13.17, 36.42 -0.39 M0.45 42.53 C12.14 27.99, 24.42 13.74, 37.29 0.07 M1.52 49.52 C15.01 30.51, 34.52 11.43, 41.64 -0.02 M0.87 48.87 C13.1 33.16, 26.78 16.49, 42.41 0.73 M3.57 50.42 C20.71 29.49, 36.79 11.1, 48.24 -1.14 M2.07 52.34 C14.5 39.78, 24.9 26.11, 46.9 0.07 M6.2 52.58 C22.24 34.39, 38.48 13.41, 53.03 -0.85 M7.34 51.07 C25.29 32.71, 40.41 14.26, 53.58 -0.32 M12.18 53.22 C27.99 34.51, 43.19 16.75, 58.69 0.61 M11.87 51.28 C26.59 35.88, 41.26 20.2, 57.63 -0.5 M17.03 50.38 C34.74 31.59, 53.32 11.85, 63.1 -0.35 M17.62 52.01 C27.25 40.62, 37.49 30.36, 64.77 -0.1 M25.25 53.76 C42.03 32.45, 60.63 10.8, 70.3 1.31 M24.32 52.26 C33.5 40.94, 43.76 29.13, 68.93 -0.22 M27.71 52.66 C41.73 36.83, 56.04 22, 75.8 -0.96 M29.67 51.01 C46.74 31.17, 64.55 10.59, 74.46 0.54 M32.5 51.82 C45.29 42.11, 54.22 31.56, 77.47 -1.37 M35.03 51.31 C45.16 39.87, 55.82 28.97, 79.81 0.25 M38.35 51.31 C51.1 40.85, 59.04 28.8, 84.91 -1.95 M39.63 52.29 C53.91 36.47, 65.96 21.56, 85.72 -0.37 M45.45 50.4 C60.56 36.9, 74.85 19.93, 90.36 -0.62 M44.2 51.32 C55.26 39.27, 67.66 26.6, 90.9 0.17 M48.88 51.43 C65.77 30.66, 82.41 12.37, 94.02 0.62 M51.24 51.97 C60.91 39.16, 69.91 27.78, 96.23 0.13 M53.45 51.68 C67.39 38.6, 81.03 21.41, 98.97 -0.4 M54.62 52.14 C68.38 37.32, 81.48 22.78, 100.42 0.67 M59.06 51.28 C75.57 33.71, 90.72 15.41, 104.52 -2.14 M61.84 52.08 C74.86 34.36, 91.09 16.17, 106.23 -0.12 M67.63 53.03 C83.56 32.17, 101.92 11.15, 113.1 0.5 M65.68 52.49 C75.94 40.6, 86.38 27.31, 112.16 0.84 M71.77 51.08 C79.82 40.73, 92.81 30.01, 114.97 0.82 M71.72 53.31 C86.95 34.69, 102.72 17.45, 115.94 0.42 M76.95 51 C88.67 36.86, 101.45 25.92, 122.38 0.46 M77.35 52.01 C91.39 34.67, 105.61 18.88, 121.53 -0.38 M79.69 53.96 C99 32.25, 116.39 10.53, 127.71 1.5 M80.7 51.98 C98.21 34.64, 114.54 14.89, 126.11 -0.11 M88.21 53.32 C101.6 32.4, 119.25 17.43, 132.23 -0.92 M88.21 51.25 C104.82 32.95, 122.09 11.16, 133.54 -0.11 M93.36 50.52 C103.22 38.15, 118.25 23.65, 136.92 1.32 M92.26 52.61 C104.67 38.37, 116.83 23.31, 138.12 -0.38 M97.97 50.94 C115.06 31.49, 129.75 13.73, 143.89 1.13 M97.43 51.64 C108.32 39.83, 118.78 27.44, 142.75 0.43 M103.76 51.78 C115.69 37.02, 130.24 19.62, 147.24 0.15 M102.11 52.83 C110.83 40.75, 119.96 31.34, 148.62 1.11 M108.65 49.95 C122.91 37.66, 133.75 23.4, 154.43 0.57 M108.77 51.56 C121.91 35.45, 136.85 19.82, 153.37 -0.08 M113.7 53.95 C124.46 38.29, 133.52 28.11, 157.15 1.05 M113.56 52.22 C123.18 41.45, 132.86 29.88, 158.83 0.72 M120.45 51.68 C136 32.63, 155.34 12.49, 164.71 0.55 M118.58 52.25 C136.45 31.76, 153.16 12.18, 165.17 -1.04 M125.8 50.42 C137.65 39.79, 148.09 25.2, 170.91 -1.75 M123.5 52.23 C141.93 32.43, 160.76 11.61, 168.58 -0.23 M131.39 52.61 C142.15 35.12, 156.52 19.42, 175.41 1.39 M129.81 51.9 C142.52 37.24, 155.41 23.15, 175.51 0.03 M134.49 51.79 C144.42 38.59, 157.59 26.04, 178.61 1.18 M134.44 52.24 C152.16 32.15, 170.24 10.02, 180.29 0.44 M141.32 52.42 C150.35 37.84, 163.84 25.44, 187.02 0.63 M140.01 51.56 C156.81 34.56, 170.64 17.05, 185.36 -0.46 M146.01 53.81 C156.91 37.66, 170.41 24.1, 192.15 -1.53 M144.47 51.53 C157.97 37.24, 171.54 23.45, 190.96 -0.16 M151.88 49.97 C161.53 38.93, 170.85 31.81, 195.85 0.98 M151.31 51.23 C159.7 40.37, 168.43 30.11, 197.28 -0.19 M154.41 53.46 C168.34 34.67, 183.59 20.9, 201.24 1.91 M155.26 51.28 C169.23 35.79, 182.36 20.75, 202.2 -0.01 M162.54 51.32 C174.62 39.88, 186.37 24.81, 206.02 -1.68 M162.44 51.8 C178.65 32.73, 194.79 12.57, 207.43 -0.96 M165.58 52.88 C175.95 41.95, 185.88 29.96, 213.41 -1.51 M166.09 52.58 C179.73 36.82, 192.76 24.05, 212.21 -0.19 M170.57 53.71 C188.69 35.99, 202.4 15.06, 217.46 -2.25 M172.73 51.05 C183.74 37.77, 197.13 23.53, 217.54 -0.64 M177.18 51.41 C190.06 40.22, 197.87 27.24, 221.99 -1.6 M177.84 52.42 C189.06 38.81, 200.23 25.97, 221.79 -0.89 M182.4 54.32 C192.82 41.19, 199.92 29.35, 224.01 8.33 M181.43 52.44 C197.47 35.47, 213.58 16.47, 223.05 5.59 M186.71 53.57 C199.71 37.37, 213.32 24.4, 222.98 11.83 M186.96 51.71 C195.99 42.54, 205.19 32.16, 221.16 13.46 M192.24 51.26 C205.16 38.99, 215.09 26.34, 222.53 20.02 M192.37 52.06 C203.16 42.52, 210.29 32.14, 222.21 18.15 M199.48 53.06 C209.44 40.66, 217.11 28.58, 221.16 25.75 M199.53 51.27 C204.81 43.91, 211.69 38.59, 222.12 24.92 M202.15 52.09 C209.93 43.21, 217.94 35.67, 220.99 32.17 M204 53.19 C209.42 45.14, 215.86 39.09, 222.14 29.61 M208.6 52.79 C215.64 45.93, 220.85 39.32, 222.63 36.65 M209.18 51.79 C213.66 47.96, 216.6 43.91, 222.58 36.77 M213.26 51.43 C215.19 49.96, 217.42 47.19, 221.97 43.35 M214.08 52.89 C217.38 48.97, 220.32 45.1, 222.2 42.79 M219.66 52.14 C220.28 51.08, 220.91 50.57, 222.76 48.65 M219.7 51.96 C220.58 50.89, 221.57 50.03, 222.3 48.85" stroke="#15aabf" stroke-width="0.5" fill="none"></path><path d="M-0.66 -0.67 C45.18 0.15, 91 -1.9, 223 -0.48 M0.84 0.31 C50.04 1.31, 100.49 2.19, 222.84 0.19 M221.74 1.91 C221.14 16.2, 220.72 31.17, 220.33 49.45 M221.49 0.67 C222.1 11.87, 221.78 23.13, 221.81 50.18 M221.64 49.21 C137.05 50.12, 51.4 51.04, -0.35 50.69 M222.61 50.69 C139.37 50.26, 54.79 50.97, 0.2 50.6 M1.38 49.78 C-0.77 40.3, -0.91 29.06, -0.68 -0.42 M-0.81 50.88 C-0.51 38.26, -0.22 25.91, 0.88 -0.1" stroke="#000000" stroke-width="1" fill="none"></path></g><g stroke-linecap="round" transform="translate(759 415.00000000000006) rotate(0 111.5 23)"><path d="M-1.64 0.42 C69.64 2.43, 139 2.72, 222.96 0.76 M-0.61 0.62 C58.24 1.31, 114.62 1.23, 222.62 0.61 M221.44 -0.8 C222.8 17.43, 222.79 34.23, 222.48 45.62 M222.04 -0.15 C222.15 17.68, 222.99 34.79, 222.15 45.95 M222.59 45.9 C136.46 47.99, 51.22 46.25, -0.94 47.45 M222.3 45.48 C172.41 47.76, 122.37 47.82, 0.35 46.35 M-0.11 44.22 C-0.22 35.88, 0.54 21.67, -0.89 -1.34 M0.3 46.88 C-0.15 36.02, -0.77 25.43, 0.28 0.62" stroke="#000000" stroke-width="1" fill="none"></path></g><g stroke-linecap="round" transform="translate(759 464.00000000000006) rotate(0 111.5 23)"><path d="M-1.04 0.26 C69.98 3.17, 139.86 2.27, 223.7 -0.69 M-0.77 -0.27 C47.84 0.17, 93.93 -0.27, 222.42 -0.69 M224.76 0.06 C223.51 14.41, 222.62 31.72, 224.24 45.36 M222.5 0.76 C223.36 10.97, 223.28 21.81, 223.18 45.03 M222.1 45.14 C143.88 45.3, 66.63 46.42, -1.35 46.38 M223.12 45.25 C155.22 45.16, 88.53 44.26, -0.44 46.09 M1.93 47.57 C0.11 31.01, -0.3 18.27, -0.26 1.3 M0.72 46.28 C-0.17 28.15, 0.89 11.77, 0.58 -0.28" stroke="#000000" stroke-width="1" fill="none"></path></g><g stroke-linecap="round" transform="translate(775 381.00000000000006) rotate(0 8.5 8.5)"><path d="M2.59 0.9 L15.57 -0.92 L17.82 5.11 L15.64 16.59 L13.86 17.89 L0.37 16.9 L0.63 2.15 L4.76 -0.68" stroke="none" stroke-width="0" fill="#40c057"></path><path d="M4.25 0 M4.25 0 C6.29 0.18, 8.97 -0.84, 12.75 0 M4.25 0 C6.28 -0.21, 7.79 0.31, 12.75 0 M12.75 0 C16.63 0.82, 15.52 -0.08, 17 4.25 M12.75 0 C15.19 -0.83, 18.6 0.18, 17 4.25 M17 4.25 C16.47 7.27, 16.24 8.89, 17 12.75 M17 4.25 C17.08 6.5, 17.03 8.32, 17 12.75 M17 12.75 C16.83 14.02, 17.33 18.53, 12.75 17 M17 12.75 C17.64 16.15, 16.99 16.4, 12.75 17 M12.75 17 C8.85 16.29, 7.04 16.96, 4.25 17 M12.75 17 C10.53 17.04, 8.35 16.93, 4.25 17 M4.25 17 C2.45 16.55, -1.43 16.41, 0 12.75 M4.25 17 C1.07 17.03, 0.99 15.96, 0 12.75 M0 12.75 C0.23 9.1, 0.48 5.77, 0 4.25 M0 12.75 C-0.07 10.41, 0.36 7.62, 0 4.25 M0 4.25 C-0.25 2.24, -0.21 -0.37, 4.25 0 M0 4.25 C2.27 2.11, 3.47 0.62, 4.25 0" stroke="#000000" stroke-width="1" fill="none"></path></g><g stroke-linecap="round" transform="translate(778 431.00000000000006) rotate(0 8.5 8.5)"><path d="M4.25 0 M4.25 0 C7.44 -0.29, 9.24 -0.41, 12.75 0 M4.25 0 C7.09 -0.42, 10.3 0.07, 12.75 0 M12.75 0 C14.27 0.89, 17.93 2.72, 17 4.25 M12.75 0 C14.24 -2.3, 18.54 1.94, 17 4.25 M17 4.25 C17.45 6.05, 17.75 8.42, 17 12.75 M17 4.25 C16.75 7.45, 17.05 9.66, 17 12.75 M17 12.75 C16.71 14.6, 16.67 15.14, 12.75 17 M17 12.75 C15.67 14.88, 17.7 15.54, 12.75 17 M12.75 17 C10.29 16.83, 8.17 17.17, 4.25 17 M12.75 17 C10.34 17.19, 7.83 17.24, 4.25 17 M4.25 17 C2.15 16.83, 0.06 14.53, 0 12.75 M4.25 17 C2.14 15.5, -1.61 15.78, 0 12.75 M0 12.75 C-0.01 9.59, -0.46 6.75, 0 4.25 M0 12.75 C-0.25 10.04, 0.24 7.7, 0 4.25 M0 4.25 C1.55 0.73, 2.28 -0.57, 4.25 0 M0 4.25 C-0.54 1.68, 1.91 -1.67, 4.25 0" stroke="#000000" stroke-width="1" fill="none"></path></g><g stroke-linecap="round" transform="translate(779 479.00000000000006) rotate(0 8.5 8.5)"><path d="M2.7 0.53 L17.58 1 L15.48 6.22 L15.82 15.25 L12.46 16.02 L2.15 14.08 L-0.89 1.78 L6.09 -1.27" stroke="none" stroke-width="0" fill="#40c057"></path><path d="M4.25 0 M4.25 0 C6.37 -0.13, 8.82 0.21, 12.75 0 M4.25 0 C6.47 0.31, 8.59 0.35, 12.75 0 M12.75 0 C16.32 -0.17, 17.06 0.37, 17 4.25 M12.75 0 C16.3 -1.5, 15.39 1.61, 17 4.25 M17 4.25 C17.09 6.8, 16.64 9.66, 17 12.75 M17 4.25 C16.7 6.6, 17.2 9.31, 17 12.75 M17 12.75 C18.55 14.9, 16.44 16.43, 12.75 17 M17 12.75 C16.46 15.85, 16.07 15.33, 12.75 17 M12.75 17 C11.43 17.53, 7.77 17.33, 4.25 17 M12.75 17 C11.1 17.12, 9.34 16.89, 4.25 17 M4.25 17 C0.61 15.53, 0.11 13.59, 0 12.75 M4.25 17 C2.46 17.71, -1.72 17.43, 0 12.75 M0 12.75 C0.72 10.6, 0.16 6.79, 0 4.25 M0 12.75 C0.14 10.11, 0.03 7.57, 0 4.25 M0 4.25 C0.07 2.9, 1.59 1.64, 4.25 0 M0 4.25 C0.22 -0.09, -0.31 1.01, 4.25 0" stroke="#000000" stroke-width="1" fill="none"></path></g><g transform="translate(810 377.00000000000006) rotate(0 36 12.5)"><text x="0" y="18" font-family="Virgil, Segoe UI Emoji" font-size="20px" fill="#000000" text-anchor="start" style="white-space: pre;" direction="ltr">Layer 1</text></g><g transform="translate(810 426.00000000000006) rotate(0 40 12.5)"><text x="0" y="18" font-family="Virgil, Segoe UI Emoji" font-size="20px" fill="#000000" text-anchor="start" style="white-space: pre;" direction="ltr">Layer 2</text></g><g transform="translate(812 474.00000000000006) rotate(0 40 12.5)"><text x="0" y="18" font-family="Virgil, Segoe UI Emoji" font-size="20px" fill="#000000" text-anchor="start" style="white-space: pre;" direction="ltr">Layer 3</text></g><g stroke-linecap="round" transform="translate(768 326) rotate(0 77 14)"><path d="M7 0 M7 0 C59.55 -2.45, 110.2 -0.27, 147 0 M7 0 C37.02 0.52, 67.96 1.07, 147 0 M147 0 C150.84 0.33, 152.87 2.15, 154 7 M147 0 C151.75 1.12, 156.12 2.41, 154 7 M154 7 C153.46 12.85, 154.57 17.94, 154 21 M154 7 C153.56 11.29, 153.63 16.01, 154 21 M154 21 C154.02 24.12, 151.3 26.17, 147 28 M154 21 C155.67 23.63, 150.86 28.78, 147 28 M147 28 C102.29 28.15, 54.34 27.37, 7 28 M147 28 C94.43 28.91, 41.62 29.25, 7 28 M7 28 C2.11 28.86, 1.88 25.78, 0 21 M7 28 C0.39 27, 0.31 26.98, 0 21 M0 21 C-1.19 16.25, -1.07 12.16, 0 7 M0 21 C-0.74 16.52, -0.1 12.14, 0 7 M0 7 C-0.15 1.35, 3.33 -0.81, 7 0 M0 7 C1.01 2.84, 0.84 -1.64, 7 0" stroke="#000000" stroke-width="1" fill="none"></path></g><g transform="translate(784 328) rotate(0 56.5 12.5)"><text x="0" y="18" font-family="Virgil, Segoe UI Emoji" font-size="20px" fill="#000000" text-anchor="start" style="white-space: pre;" direction="ltr">Layer name</text></g><g stroke-linecap="round"><g transform="translate(949 331) rotate(0 -0.008161686731568807 8.940293451519665)"><path d="M0.95 -0.33 C0.74 2.62, -0.93 14.87, -1.08 17.93 M-0.01 -1.55 C0.12 1.58, 1.18 15.95, 1.06 19.43" stroke="#000000" stroke-width="1" fill="none"></path></g></g><mask></mask><g stroke-linecap="round"><g transform="translate(938 338) rotate(0 11.694401786206186 0.7252381381252633)"><path d="M0.98 0.49 C4.59 0.84, 17.67 1.7, 21.1 1.74 M0.04 -0.29 C4.06 -0.25, 19.92 -0.36, 23.35 0.01" stroke="#000000" stroke-width="1" fill="none"></path></g></g><mask></mask><g stroke-linecap="round" transform="translate(931 327) rotate(0 18 13)"><path d="M6.5 0 M6.5 0 C13.97 1, 24.05 0.68, 29.5 0 M6.5 0 C14.74 0.96, 20.77 0.91, 29.5 0 M29.5 0 C33.87 0.49, 36.72 0.69, 36 6.5 M29.5 0 C33.62 1.08, 34.48 -0.04, 36 6.5 M36 6.5 C36.54 9.89, 36.48 13.81, 36 19.5 M36 6.5 C35.97 9.49, 35.77 12.98, 36 19.5 M36 19.5 C36.87 23.78, 32.01 26.57, 29.5 26 M36 19.5 C38.19 24.45, 33.24 26.66, 29.5 26 M29.5 26 C23.26 27.58, 14.9 26.39, 6.5 26 M29.5 26 C24.62 25.88, 20.41 26.18, 6.5 26 M6.5 26 C0.77 24.22, 0.61 24.09, 0 19.5 M6.5 26 C2.84 25.89, -0.71 22.54, 0 19.5 M0 19.5 C-0.41 17.3, 0.47 12.08, 0 6.5 M0 19.5 C-0.23 15.71, -0.4 11.56, 0 6.5 M0 6.5 C0.63 2.8, 1.93 -0.48, 6.5 0 M0 6.5 C1.21 0.36, 0.05 -1.46, 6.5 0" stroke="#000000" stroke-width="1" fill="none"></path></g><g stroke-linecap="round" transform="translate(10 10) rotate(0 482.5 22)"><path d="M-0.15 -0.55 C254.28 2.57, 509.72 3.01, 964.27 0.23 M0.12 0.23 C381.83 0.64, 763.29 1.35, 965.36 0.12 M964.46 0.2 C965.24 9.63, 963.58 15.85, 965.61 44.26 M964.44 -0.61 C964.63 14.43, 964.63 29.68, 965.33 43.08 M964.67 44.43 C657.16 41.28, 350.64 41.11, -0.09 43.81 M964.75 43.96 C624.3 40.47, 284.76 40.65, -0.16 43.73 M1.71 43.47 C-0.77 32.91, -0.43 24.53, 1.35 0.61 M0.73 43.39 C-0.18 32.7, 0.42 22.03, -0.01 -0.14" stroke="#000000" stroke-width="1" fill="none"></path></g><g stroke-linecap="round"><g transform="translate(860 66) rotate(0 -0.10005941473343682 20.568597095459708)"><path d="M0.19 -1.03 C0.16 6.15, 1.03 35.15, 0.98 42.17 M-1.17 1.04 C-1.37 8, 0.5 33.76, 0.55 40.66" stroke="#000000" stroke-width="1" fill="none"></path></g></g><mask></mask><g stroke-linecap="round" transform="translate(785 74) rotate(0 19.5 9)"><path d="M16.42 0.81 C20.15 0.34, 25.53 0.59, 29.1 1.47 C32.67 2.35, 36.32 4.45, 37.85 6.11 C39.38 7.77, 39.8 9.67, 38.3 11.43 C36.79 13.2, 32.49 15.57, 28.83 16.69 C25.16 17.81, 20.45 18.38, 16.3 18.17 C12.15 17.96, 6.61 17.01, 3.94 15.43 C1.27 13.84, 0.19 10.69, 0.26 8.65 C0.34 6.6, 1.39 4.73, 4.39 3.16 C7.39 1.6, 15.92 -0.11, 18.27 -0.74 C20.61 -1.37, 18.51 -0.81, 18.46 -0.63 M15.95 0.72 C19.92 0.12, 25.31 -0.23, 29.1 0.68 C32.89 1.6, 37.17 4.23, 38.68 6.19 C40.2 8.14, 39.82 10.63, 38.2 12.41 C36.58 14.19, 32.66 16.02, 28.97 16.86 C25.27 17.69, 19.99 17.52, 16.05 17.4 C12.11 17.27, 8.09 17.29, 5.32 16.09 C2.55 14.9, -0.18 12.34, -0.58 10.22 C-0.99 8.1, 0.49 4.92, 2.88 3.39 C5.27 1.86, 11.57 1.71, 13.78 1.03 C15.99 0.35, 15.78 -0.58, 16.16 -0.68" stroke="#000000" stroke-width="1" fill="none"></path></g><g stroke-linecap="round"><g transform="translate(789 91) rotate(0 2.250232752404486 3.4833184161741855)"><path d="M-0.5 0.52 C-1.95 1.37, -10.67 5.26, -8.74 5.78 C-6.81 6.3, 7.49 4.23, 11.1 3.62 M1.44 -0.25 C0.39 0.72, -8.42 6.89, -6.41 7.2 C-4.4 7.51, 10.17 2.35, 13.52 1.61" stroke="#000000" stroke-width="1" fill="none"></path></g></g><mask></mask><g stroke-linecap="round" transform="translate(904 71) rotate(0 8.5 7.5)"><path d="M4.28 1.6 C5.98 0.92, 8.66 0.66, 10.57 0.83 C12.48 1.01, 14.6 1.51, 15.72 2.63 C16.84 3.75, 17.57 5.96, 17.29 7.57 C17.02 9.19, 15.24 10.94, 14.06 12.32 C12.88 13.69, 11.77 15.61, 10.22 15.83 C8.67 16.06, 6.44 14.7, 4.76 13.66 C3.07 12.62, 0.78 11.09, 0.11 9.59 C-0.56 8.1, -0.15 6.11, 0.75 4.68 C1.66 3.24, 4.35 1.71, 5.54 0.98 C6.74 0.25, 7.9 0.26, 7.93 0.32 M6.43 0.49 C8.36 0.31, 11.34 0.77, 13.15 1.49 C14.97 2.21, 17.01 3.27, 17.33 4.8 C17.65 6.34, 15.63 9.08, 15.08 10.71 C14.54 12.35, 15.21 14.09, 14.08 14.61 C12.95 15.14, 10.14 14.4, 8.3 13.85 C6.47 13.29, 4.36 12.55, 3.05 11.29 C1.74 10.03, 0.43 7.7, 0.45 6.3 C0.47 4.9, 2.13 4.05, 3.17 2.89 C4.21 1.74, 5.91 -0.37, 6.68 -0.62 C7.45 -0.86, 7.96 1.42, 7.79 1.43" stroke="#000000" stroke-width="1" fill="none"></path></g><g stroke-linecap="round"><g transform="translate(906 82) rotate(0 6.63398766427099 8.658533518599356)"><path d="M0.36 -0.81 C-1.14 1.78, -13.11 11.84, -9.54 14.83 C-5.97 17.81, 17.98 19.23, 21.8 17.12 C25.63 15.01, 15.07 4.58, 13.42 2.18 M-0.9 1.38 C-2.57 4.21, -14.93 13.94, -10.77 16.27 C-6.61 18.6, 19.96 17.6, 24.07 15.37 C28.18 13.13, 15.64 4.91, 13.88 2.85" stroke="#000000" stroke-width="1" fill="none"></path></g></g><mask></mask><g stroke-linecap="round" transform="translate(756 280) rotate(0 111.5 10.5)"><path d="M5.25 0 M5.25 0 C63.12 0.69, 119.59 0.57, 217.75 0 M5.25 0 C82.28 1.46, 160.89 0.28, 217.75 0 M217.75 0 C220.45 0.94, 222.06 1.73, 223 5.25 M217.75 0 C222.6 -0.36, 221.71 0.08, 223 5.25 M223 5.25 C222.27 7.57, 222.43 9.35, 223 15.75 M223 5.25 C223.15 9.21, 223.46 12.85, 223 15.75 M223 15.75 C224.09 18.16, 222.74 19.14, 217.75 21 M223 15.75 C221.78 19.37, 219.56 21.1, 217.75 21 M217.75 21 C133.53 20.75, 48.66 19.21, 5.25 21 M217.75 21 C168.93 20.01, 120.14 20.74, 5.25 21 M5.25 21 C2.64 20.02, -1.56 19.47, 0 15.75 M5.25 21 C-0.27 20.97, -0.24 21.27, 0 15.75 M0 15.75 C0.91 12.58, 1.08 9.85, 0 5.25 M0 15.75 C0.46 11.97, 0.14 7.75, 0 5.25 M0 5.25 C-0.65 0.65, 3.37 0.9, 5.25 0 M0 5.25 C-1.54 1.98, 0.54 -0.23, 5.25 0" stroke="#000000" stroke-width="1" fill="none"></path></g><g stroke-linecap="round" transform="translate(23 20) rotate(0 15.5 13)"><path d="M6.5 0 M6.5 0 C10.05 -1.87, 15.72 -1.03, 24.5 0 M6.5 0 C10.51 0.47, 16.4 -0.89, 24.5 0 M24.5 0 C29.99 1.71, 29.17 3.21, 31 6.5 M24.5 0 C29.75 0.55, 31.15 0.94, 31 6.5 M31 6.5 C30.81 10.23, 31.99 15.52, 31 19.5 M31 6.5 C31 10.42, 30.55 14.86, 31 19.5 M31 19.5 C31.37 23.07, 27.56 27.83, 24.5 26 M31 19.5 C29.22 22.89, 29.8 24.24, 24.5 26 M24.5 26 C22.26 24.92, 18.02 25.83, 6.5 26 M24.5 26 C17.1 25.36, 11.78 26.26, 6.5 26 M6.5 26 C1.22 25.38, -1.09 23.63, 0 19.5 M6.5 26 C3.09 27.77, -0.48 22.32, 0 19.5 M0 19.5 C0.71 15.6, -0.67 12.34, 0 6.5 M0 19.5 C0.47 15.75, -0.49 10.11, 0 6.5 M0 6.5 C1.12 1.07, 0.28 -0.83, 6.5 0 M0 6.5 C-0.2 2.32, -0.09 1.56, 6.5 0" stroke="#000000" stroke-width="1" fill="none"></path></g><g stroke-linecap="round"><g transform="translate(94 30) rotate(0 11.28873283499388 -0.09073836203000951)"><path d="M0.6 0.6 C4.61 0.63, 19.4 -0.65, 23.12 -0.78 M-0.54 -0.14 C3.49 0.12, 18.9 0.15, 22.76 0.35" stroke="#000000" stroke-width="1" fill="none"></path></g></g><mask></mask></svg>